<?xml version="1.0" encoding="UTF-8"?><svg id="Layer_1" xmlns="http://www.w3.org/2000/svg" viewBox="0 0 1792.87 680.75"><defs><style>.cls-1{stroke-width:15px;}.cls-1,.cls-2,.cls-3,.cls-4,.cls-5{fill:none;}.cls-1,.cls-3{stroke:#d5f2e8;}.cls-1,.cls-3,.cls-4,.cls-5{stroke-miterlimit:10;}.cls-6{fill:#ffce83;}.cls-7{fill:#d5f2e8;}.cls-2{stroke-linecap:round;stroke-linejoin:round;}.cls-2,.cls-4{stroke:#3c4973;}.cls-2,.cls-4,.cls-5{stroke-width:2px;}.cls-3{stroke-width:20px;}.cls-5{stroke:#ffce83;}.cls-8{opacity:.3;}</style></defs><g class="cls-8"><path class="cls-1" d="m589,82c7-7,7-18.3,0-25.3s-18.3-7-25.3,0-7,18.3,0,25.3,18.3,7,25.3,0Z"/><path class="cls-3" d="m812.8,579.6c22.5,0,40.8-18.3,40.8-40.8s-18.3-40.8-40.8-40.8-40.8,18.3-40.8,40.8,18.3,40.8,40.8,40.8Z"/><path class="cls-4" d="m1537,461c6.8,0,6.8,4,13.4,4s6.8-4,13.5-4,6.8,4,13.4,4,6.8-4,13.5-4,6.8,4,13.5,4,6.8-4,13.4-4,6.8,4,13.5,4,6.8-4,13.5-4,6.8,4,13.4,4,6.8-4,13.5-4,6.8,4,13.4,4,6.8-4,13.4-4,6.8,4,13.5,4,6.8-4,13.4-4,6.8,4,13.5,4,6.8-4,13.5-4,6.8,4,13.4,4,6.8-4,13.5-4"/><path class="cls-4" d="m1537,478.5c6.8,0,6.8,4,13.4,4s6.8-4,13.5-4,6.8,4,13.4,4,6.8-4,13.5-4,6.8,4,13.5,4,6.8-4,13.4-4,6.8,4,13.5,4,6.8-4,13.5-4,6.8,4,13.4,4,6.8-4,13.5-4,6.8,4,13.4,4,6.8-4,13.4-4,6.8,4,13.5,4,6.8-4,13.4-4,6.8,4,13.5,4,6.8-4,13.5-4,6.8,4,13.4,4,6.8-4,13.5-4"/><path class="cls-4" d="m1537,495.9c6.8,0,6.8,4,13.4,4s6.8-4,13.5-4,6.8,4,13.4,4,6.8-4,13.5-4,6.8,4,13.5,4,6.8-4,13.4-4,6.8,4,13.5,4,6.8-4,13.5-4,6.8,4,13.4,4,6.8-4,13.5-4,6.8,4,13.4,4,6.8-4,13.4-4,6.8,4,13.5,4,6.8-4,13.4-4,6.8,4,13.5,4,6.8-4,13.5-4,6.8,4,13.4,4,6.8-4,13.5-4"/><path class="cls-4" d="m1537,513.3c6.8,0,6.8,4,13.4,4s6.8-4,13.5-4,6.8,4,13.4,4,6.8-4,13.5-4,6.8,4,13.5,4,6.8-4,13.4-4,6.8,4,13.5,4,6.8-4,13.5-4,6.8,4,13.4,4,6.8-4,13.5-4,6.8,4,13.4,4,6.8-4,13.4-4,6.8,4,13.5,4,6.8-4,13.4-4,6.8,4,13.5,4,6.8-4,13.5-4,6.8,4,13.4,4,6.8-4,13.5-4"/><path class="cls-4" d="m260.9,114.7c-2.6-6.7.7-14.2,7.4-16.8,6.7-2.6,14.2.7,16.8,7.4,2.6,6.7-.7,14.2-7.4,16.8"/><path class="cls-4" d="m38.2,676c5.1-5.1,5.1-13.3,0-18.3-5.1-5.1-13.3-5.1-18.3,0-5.1,5.1-5.1,13.3,0,18.3,5,5,13.2,5,18.3,0Z"/><path class="cls-6" d="m853.3,134.9l64-87.2v-.1h-.1l-7.5-18-19.5-1.8-63.9,87.2,7.5,17.9,19.5,1.9v.1Z"/><path class="cls-2" d="m825.5,131.1l-7.5-18,63.9-87.1,7.6,17.9-51.7,70.4"/><path class="cls-2" d="m825.5,132.1l19.6,1.9,63.9-87.2-19.5-1.9-51.7,70.4"/><path class="cls-2" d="m845,133.2l-7.2-18.8-19.8-1.2,63.9-87.1,19.5,1.8,7.5,18.1-63.9,87.2Z"/><path class="cls-5" d="m1741,182.9c37.7-11.3,59.1-50.9,47.9-88.6-11.3-37.7-50.9-59.1-88.6-47.9-37.7,11.3-59.1,50.9-47.9,88.6s50.9,59.1,88.6,47.9Z"/><path class="cls-5" d="m1783.6,120.1c3-34.8-22.8-65.6-57.6-68.6-34.8-3-65.5,22.8-68.6,57.6s22.8,65.6,57.6,68.6c34.9,3,65.6-22.8,68.6-57.6Z"/><path class="cls-5" d="m1775.6,122.4c4.3-30.4-16.8-58.5-47.2-62.8-30.4-4.3-58.5,16.8-62.8,47.2s16.8,58.5,47.2,62.8c30.4,4.3,58.5-16.8,62.8-47.2Z"/><path class="cls-5" d="m1720.6,162.4c26.4,0,47.7-21.4,47.7-47.8s-21.4-47.8-47.7-47.8-47.8,21.4-47.8,47.8c0,26.4,21.4,47.8,47.8,47.8Z"/><path class="cls-5" d="m1725,154.3c21.9-2.4,37.7-22.1,35.2-44-2.4-21.9-22.1-37.7-44-35.2-21.9,2.4-37.6,22.1-35.2,44,2.4,21.8,22.1,37.6,44,35.2Z"/><path class="cls-5" d="m1746.6,133.4c10.4-14.4,7.1-34.4-7.2-44.8-14.3-10.4-34.4-7.2-44.8,7.2-10.4,14.4-7.1,34.4,7.2,44.8,14.3,10.4,34.4,7.2,44.8-7.2Z"/><path class="cls-5" d="m1741.6,126.5c6.6-11.6,2.6-26.4-9-33s-26.4-2.6-33,9.1c-6.6,11.6-2.5,26.4,9.1,33,11.5,6.6,26.3,2.6,32.9-9.1Z"/><path class="cls-5" d="m1726.4,130c8.5-3.2,12.7-12.7,9.5-21.1-3.2-8.5-12.7-12.7-21.1-9.5-8.5,3.2-12.7,12.7-9.5,21.1s12.6,12.7,21.1,9.5Z"/><path class="cls-5" d="m1712.9,118.6c-2.1-4.2-.5-9.4,3.6-11.5,4.2-2.1,9.4-.5,11.5,3.6,2.1,4.2.5,9.4-3.7,11.5-4,2.2-9.2.6-11.4-3.6Z"/><path class="cls-7" d="m11.6.1L0,11.6l36.7,36.7,11.6-11.6L11.6.1Z"/><path class="cls-7" d="m0,36.7l11.6,11.6L48.3,11.6,36.7,0,0,36.7Z"/><path class="cls-6" d="m125.1,389.6l-32.1-5.6-10.3-30.6,40.9-48.3,42.4,36.1-40.9,48.4Z"/><path class="cls-2" d="m89.3,371.8l-10.3-30.5,40.9-48.3,10.3,30.6-40.9,48.2Z"/><path class="cls-2" d="m89.3,371.8l32.2,5.5,40.9-48.4-32.2-5.4-40.9,48.3Z"/><path class="cls-2" d="m121.4,377.4l-42.4-36.1,40.9-48.3,42.4,36.1-40.9,48.3Z"/><path class="cls-6" d="m1279.9,377.7c17.6,0,31.9-14.3,31.9-31.9s-14.3-31.9-31.9-31.9-31.9,14.3-31.9,31.9,14.3,31.9,31.9,31.9Z"/></g></svg>